<svg xmlns="http://www.w3.org/2000/svg" version="1.1" xmlns:xlink="http://www.w3.org/1999/xlink" xmlns:svgjs="http://svgjs.dev/svgjs" width="1440" height="560" preserveAspectRatio="none" viewBox="0 0 1440 560">
    <g mask="url(&quot;#SvgjsMask1016&quot;)" fill="none">
        <rect width="1440" height="560" x="0" y="0" fill="rgba(0, 0, 0, 1)"></rect>
        <path d="M258.9 0C274.7 3.1 268.67 27.5 280 27.5C292.49 27.5 288.91 3.47 306.55 0C358.91 -10.28 363.27 0 420 0C490 0 490 0 560 0C626.74 0 672.04 -33.36 693.49 0C717.04 36.64 647.7 78.14 650 140C650.96 165.86 677.23 175.44 700 175.44C717.28 175.44 714.97 157.65 730.11 140C784.97 76.05 783.76 74.75 840 12.25C846.74 4.75 846.26 0.86 856.07 0C916.26 -5.27 918.04 0 980 0C1050 0 1050 0 1120 0C1190 0 1190 0 1260 0C1321.7 0 1323.63 -5.58 1383.39 0C1393.63 0.96 1392.11 13.07 1400 13.07C1406.86 13.07 1404.06 0.82 1412.89 0C1474.06 -5.71 1509.76 -33.31 1540 0C1573.31 36.69 1540 70 1540 140C1540 180 1564.54 197.45 1540 220C1494.54 261.78 1468.8 242.06 1400 268.65C1391.17 272.06 1384.73 273.99 1384.73 280C1384.73 286.44 1390.18 291.65 1400 293.55C1467.81 306.65 1500.68 274.49 1540 310C1570.68 337.71 1540 365 1540 420C1540 490 1565.61 515.61 1540 560C1525.22 585.61 1498.41 566.43 1459.23 560C1428.41 554.94 1428.46 537.01 1400 537.01C1380.94 537.01 1384.49 556.67 1364.19 560C1314.49 568.16 1312.1 560 1260 560C1190 560 1190 560 1120 560C1058.4 560 1057.84 562.91 996.8 560C987.84 559.57 987.84 553.33 980 553.33C975.55 553.33 977.26 559.76 972.22 560C907.26 563.1 906.11 560 840 560C770 560 770 560 700 560C630 560 630 560 560 560C511.72 560 500.86 579.24 463.45 560C430.86 543.24 439.13 488 420 488C402.22 488 418.77 545.02 389.64 560C348.77 581.02 334.82 560 280 560C210 560 210 560 140 560C70 560 35 595 0 560C-35 525 0 490 0 420C0 350 0 350 0 280C0 210 0 210 0 140C0 70 -35 35 0 0C35 -35 70 0 140 0C199.45 0 204.7 -10.65 258.9 0" stroke="rgba(112, 148, 217, 0.22)" stroke-width="2"></path>
        <path d="M420 109.67C403.68 109.67 388.62 122.79 388.62 140C388.62 163.95 403.31 192 420 192C437.57 192 457.14 163.52 457.14 140C457.14 122.35 437.94 109.67 420 109.67" stroke="rgba(112, 148, 217, 0.22)" stroke-width="2"></path>
        <path d="M280 246.78C258.46 246.78 259.28 263.02 239.17 280C189.28 322.13 186.39 319.44 140 365C115.12 389.44 96.62 391.16 96.62 420C96.62 454.48 106.81 487.14 140 491.63C198.5 499.55 210.41 469.34 280 444.81C312.02 433.52 334.35 446.88 343.23 420C361.57 364.48 356.17 339.54 334.44 280C324.56 252.93 306.1 246.78 280 246.78" stroke="rgba(112, 148, 217, 0.22)" stroke-width="2"></path>
        <path d="M840 249.89C820.87 249.89 804.56 259.4 804.56 280C804.56 341.12 818.36 413.33 840 413.33C862.5 413.33 892.83 337.39 892.83 280C892.83 255.67 865.01 249.89 840 249.89" stroke="rgba(112, 148, 217, 0.22)" stroke-width="2"></path>
        <path d="M560 343.91C524.36 343.91 476.67 385.43 476.67 420C476.67 450.4 522.69 473.85 560 473.85C585.96 473.85 603.21 448.65 603.21 420C603.21 383.68 587.63 343.91 560 343.91" stroke="rgba(112, 148, 217, 0.22)" stroke-width="2"></path>
        <path d="M0 30.73C3.75 11.58 8.65 4.11 27.39 0C78.65 -11.25 83.69 0 140 0C175.48 0 184.02 -17.32 210.96 0C254.02 27.68 243.63 46.6 280 90C302.29 116.6 328.28 115.31 328.28 140C328.28 164.04 305.59 165.35 280 187.46C224.57 235.35 222.89 233.45 166.25 280C152.89 290.97 154.51 302.5 140 302.5C118.88 302.5 117.19 291.84 95 280C47.19 254.51 26.24 266.5 0 227.84C-21.26 196.5 0 183.92 0 140C0 85.37 -9.95 81.58 0 30.73" stroke="rgba(112, 148, 217, 0.22)" stroke-width="2"></path>
        <path d="M420 51.33C392.11 27.18 366.9 14.93 366.9 0C366.9 -10.73 393.45 0 420 0C490 0 490 0 560 0C586.05 0 608.4 -18.77 612.09 0C622.15 51.23 602.4 70.58 587.5 140C576.36 191.91 574.66 242.67 560 242.67C545.19 242.67 558.93 181.5 528.57 140C488.93 85.83 472.94 97.18 420 51.33" stroke="rgba(112, 148, 217, 0.22)" stroke-width="2"></path>
        <path d="M767.74 140C767.74 99.36 800.27 94.18 840 56C873.12 24.18 872.76 16.27 913.44 0C942.76 -11.73 946.72 0 980 0C1050 0 1050 0 1120 0C1190 0 1190 0 1260 0C1292.03 0 1296.16 -11.91 1324.07 0C1366.16 17.96 1363.91 59.73 1400 59.73C1431.35 59.73 1423.34 15.19 1458.95 0C1493.34 -14.67 1521.96 -22.48 1540 0C1562.48 28.01 1552.79 55.85 1540 100.98C1532.95 125.85 1521.41 121.88 1500.33 140C1451.41 182.06 1450.89 181.6 1400 221.35C1361.27 251.6 1321.09 248.97 1321.09 280C1321.09 313.29 1356.61 320.59 1400 350C1459.89 390.59 1527.65 386.02 1527.65 420C1527.65 453.41 1462.06 449.3 1400 484.78C1339.63 519.3 1342.95 527.68 1282.79 560C1272.95 565.29 1271.39 560 1260 560C1211 560 1166.97 586.85 1162 560C1154.01 516.85 1228.06 492.11 1234.07 420C1239.73 352.11 1178 343.92 1185.33 280C1190.97 230.84 1224.67 238.46 1260 193.85C1280.11 168.46 1296.21 166.61 1296.21 140C1296.21 114.68 1286.72 94.13 1260 90C1198.61 80.52 1189.33 116.1 1120 112.78C1049.33 109.4 1040.43 67.79 980 76.6C947.1 81.4 961.34 112.86 933.33 140C891.34 180.69 884.38 212.26 840 212.26C801.58 212.26 767.74 177.49 767.74 140" stroke="rgba(112, 148, 217, 0.22)" stroke-width="2"></path>
        <path d="M574.74 280C587.31 233.03 642.5 219.75 700 219.75C735.25 219.75 745.4 242.33 760.25 280C784.86 342.45 754.64 356.95 778.91 420C794.52 460.55 810.04 487.2 840 487.2C869.06 487.2 875.24 457.84 896.95 420C934.68 354.24 926.1 349.06 958.87 280C967.62 261.56 966.87 245 980 245C996.74 245 1007.41 257.19 1018.62 280C1050.39 344.69 1076.78 358.98 1065.96 420C1057.47 467.87 1023.44 459.42 980 497.78C944.17 529.42 948.46 541.75 907.41 560C878.46 572.86 873.7 560 840 560C777.24 560 775.26 565.36 714.48 560C705.26 559.19 704.11 556.11 700 547.65C670.08 486.11 675.74 482.65 646.42 420C613.11 348.82 560.52 333.15 574.74 280" stroke="rgba(112, 148, 217, 0.22)" stroke-width="2"></path>
        <path d="M0 341.86C12.75 341.86 47.32 378.48 47.32 420C47.32 484.75 12.18 554.4 0 554.4C-11.48 554.4 0 487.2 0 420C0 380.93 -10.91 341.86 0 341.86" stroke="rgba(112, 148, 217, 0.22)" stroke-width="2"></path>
        <path d="M152.73 560C152.73 541.08 221.76 489.11 280 489.11C319.13 489.11 347.47 539.02 347.47 560C347.47 574.46 313.74 560 280 560C216.37 560 152.73 576.53 152.73 560" stroke="rgba(112, 148, 217, 0.22)" stroke-width="2"></path>
        <path d="M523.79 560C523.79 550.75 538.13 527.69 560 527.69C614.57 527.69 676.67 551.77 676.67 560C676.67 567.93 618.34 560 560 560C541.89 560 523.79 566.9 523.79 560" stroke="rgba(112, 148, 217, 0.22)" stroke-width="2"></path>
        <path d="M0 116.1C26.45 116.1 70 129.12 70 140C70 150.68 27.67 159.22 0 159.22C-7.33 159.22 0 149.61 0 140C0 128.05 -8.55 116.1 0 116.1" stroke="rgba(112, 148, 217, 0.22)" stroke-width="2"></path>
        <path d="M140 88.42C124.78 88.42 103.48 32 103.48 0C103.48 -12.21 121.74 0 140 0C151.5 0 163.01 -8.89 163.01 0C163.01 35.32 154.54 88.42 140 88.42" stroke="rgba(112, 148, 217, 0.22)" stroke-width="2"></path>
        <path d="M805.38 140C805.38 120.52 821.4 99.75 840 99.75C861.07 99.75 884.72 120.7 884.72 140C884.72 158.14 861.26 174.62 840 174.62C821.59 174.62 805.38 157.96 805.38 140" stroke="rgba(112, 148, 217, 0.22)" stroke-width="2"></path>
        <path d="M980 10.57C973.22 9.86 970.82 3.19 970.82 0C970.82 -2.09 975.41 0 980 0C1050 0 1050 0 1120 0C1190 0 1190 0 1260 0C1262.38 0 1264.75 -1.22 1264.75 0C1264.75 2.11 1263.99 6.24 1260 6.67C1191.62 14.02 1190.05 14.58 1120 15.56C1050.05 16.53 1047.81 17.64 980 10.57" stroke="rgba(112, 148, 217, 0.22)" stroke-width="2"></path>
        <path d="M1356.55 140C1356.55 123.13 1378.41 106.4 1400 106.4C1421.14 106.4 1442 123.13 1442 140C1442 156.96 1421.14 174.05 1400 174.05C1378.42 174.05 1356.55 156.95 1356.55 140" stroke="rgba(112, 148, 217, 0.22)" stroke-width="2"></path>
        <path d="M1540 43.61C1530.17 43.61 1505 13.41 1505 0C1505 -8.39 1532.21 -9.71 1540 0C1549.71 12.1 1547.67 43.61 1540 43.61" stroke="rgba(112, 148, 217, 0.22)" stroke-width="2"></path>
        <path d="M666.84 280C667.91 263.94 684.78 264.05 700 264.05C709.33 264.05 714.89 269.18 715.95 280C722.53 347.16 721.87 351.8 715.27 420C713.9 434.15 706.67 444.71 700 444.71C693.85 444.71 692.26 433.09 689.63 420C675.68 350.73 662.72 341.91 666.84 280" stroke="rgba(112, 148, 217, 0.22)" stroke-width="2"></path>
        <path d="M956.27 420C956.27 396.41 967.96 368.15 980 368.15C992.11 368.15 1004.56 396.52 1004.56 420C1004.56 433.55 992.18 442.22 980 442.22C968.04 442.22 956.27 433.45 956.27 420" stroke="rgba(112, 148, 217, 0.22)" stroke-width="2"></path>
        <path d="M1367.69 420C1367.69 413.44 1384.2 406.45 1400 406.45C1412.71 406.45 1424.71 413.42 1424.71 420C1424.71 426.47 1412.67 432.54 1400 432.54C1384.16 432.54 1367.69 426.49 1367.69 420" stroke="rgba(112, 148, 217, 0.22)" stroke-width="2"></path>
        <path d="M232.27 560C232.27 552.91 258.16 533.42 280 533.42C294.67 533.42 305.3 552.13 305.3 560C305.3 565.42 292.65 560 280 560C256.13 560 232.27 566.2 232.27 560" stroke="rgba(112, 148, 217, 0.22)" stroke-width="2"></path>
        <path d="M835.17 560C835.17 559.25 837.8 557.2 840 557.2C841.51 557.2 842.59 559.17 842.59 560C842.59 560.57 841.3 560 840 560C837.59 560 835.17 560.65 835.17 560" stroke="rgba(112, 148, 217, 0.22)" stroke-width="2"></path>
    </g>
    <defs>
        <mask id="SvgjsMask1016">
            <rect width="1440" height="560" fill="#ffffff"></rect>
        </mask>
    </defs>
</svg>