<svg version="1.2" xmlns="http://www.w3.org/2000/svg" viewBox="0 0 718 545" width="718" height="545">
	<title>undraw-1-svg</title>
	<style>
		.s0 { fill: #2f2e41 } 
		.s1 { fill: #ffb8b8 } 
		.s2 { fill: #607cb0 } 
		.s3 { fill: #ffb6b6 } 
		.s4 { fill: #f2f2f2 } 
		.s5 { fill: #e6e6e6 } 
		.s6 { fill: #ffffff } 
		.s7 { fill: #cccccc } 
		.s8 { fill: #fd6584 } 
	</style>
	<path id="Layer" class="s0" d="m287.2 52.5c-8.8 15.1 7.7 40.5-8.9 45.7l1.4-1.3c10-12.3-10.9-38.4-0.9-50.7q0.6-0.7 1.1-1.4 0.5-0.7 1-1.5 0.5-0.7 1-1.5 0.4-0.8 0.9-1.6"/>
	<path id="Layer" class="s1" d="m369.1 273.5c0.3-1.5 0.2-3-0.2-4.5-0.3-1.5-1-2.9-2-4.1-1-1.2-2.2-2.1-3.6-2.8-1.4-0.7-2.9-1-4.4-1l-21.6-62.8-12 15.2 22.9 58.7c0.1 2.6 1.2 5 3 6.8 1.8 1.9 4.2 3 6.8 3.1 2.6 0.2 5.2-0.6 7.2-2.2 2-1.6 3.4-3.8 3.9-6.4z"/>
	<path id="Layer" class="s2" d="m274.1 121.9c0 0-0.7-22.7 19.6-9.7 20.3 13 64.6 135 64.6 135l-22 11.9-50-111.6z"/>
	<path id="Layer" class="s3" d="m334 511.5l-10.1 4.3-21.6-37.1 15-6.4 16.7 39.2z"/>
	<path id="Layer" class="s0" d="m346.9 526.8l-7.3 3.1-4.2-6.3-0.4 8.3-19.3 8.2c-0.9 0.4-2 0.5-2.9 0.3-1-0.3-1.9-0.8-2.6-1.6-0.6-0.7-1-1.7-1.1-2.7 0-1 0.2-2 0.7-2.8l10.9-17.3-3-6.9 16.7-6z"/>
	<path id="Layer" class="s3" d="m174.9 524.1l-11-0.6-3.2-42.8 16.3 0.8-2.1 42.6z"/>
	<path id="Layer" class="s0" d="m179.8 543.5l-7.9-0.4-1-7.6-4 7.3-21-1c-1-0.1-2-0.4-2.7-1.1-0.8-0.6-1.4-1.5-1.6-2.4-0.3-1-0.2-2 0.2-3 0.3-0.9 1-1.7 1.9-2.2l17.3-10.8 0.3-7.5 17.6 1.9z"/>
	<path id="Layer" class="s4" d="m499.8 517.3c0.7 0 1.4-0.2 2-0.6 0.6-0.4 1.1-1 1.4-1.7 0.3-0.6 0.3-1.4 0.2-2.1-0.2-0.7-0.6-1.4-1.1-1.9-0.1-0.3-0.2-0.6-0.3-0.9 0.7-1.8 1.9-3.3 3.5-4.4 1.5-1.1 3.4-1.7 5.3-1.8 1.9 0 3.8 0.5 5.4 1.6 1.6 1 2.8 2.5 3.6 4.2 4.3 9.9 9.9 20.1 7.2 31 17.6-38.2 11.1-85.5-15.8-117.8-7.3-4-13.4-11.1-15-19.4 3.7 1.2 8.2-1.8 5.4-5.6q-1.8-2.2-3.6-4.4c13.6-14.8 30.3 8.1 15.3 28.1q1.9 2.3 3.6 4.7 1.8 2.4 3.4 4.9 1.7 2.5 3.2 5.1 1.5 2.6 2.8 5.3-0.3-2.9-0.3-5.7 0-2.8 0.3-5.7 0.4-2.8 1-5.6 0.7-2.7 1.7-5.4c2.7-6.6 7.7-12.3 12.2-18 5.5-7.1 16.8-3.9 17.7 4.9-5.1 1.7-5.7 9.1 0.1 10-1.3 16.5-12 31.7-26.7 39.1q2.1 5.7 3.6 11.6 1.5 6 2.3 12 0.9 6 1.1 12.1 0.2 6.1-0.3 12.2c2.5-19 22.8-23.8 37-31.5 0.9-0.6 1.9-0.9 3-0.9 1.1 0 2.1 0.3 3 0.9 0.9 0.6 1.7 1.4 2.1 2.4 0.4 1 0.6 2.1 0.4 3.1q-0.7 0.3-1.5 0.7-0.7 0.3-1.4 0.7-0.7 0.4-1.4 0.8-0.6 0.4-1.3 0.9c-0.8 0.5-1.5 1.3-1.8 2.3-0.4 0.9-0.4 1.9-0.1 2.9 0.2 1 0.8 1.8 1.5 2.5 0.8 0.6 1.7 1 2.7 1.1-7 17.8-25.4 29.9-44.5 30q-0.7 3-1.5 6-0.8 2.9-1.7 5.8-1 2.9-2.1 5.8-1.1 2.9-2.4 5.6l-28.3 0.3q-0.2-0.5-0.3-0.9 1 0 2 0 1 0 1.9-0.1 1 0 2-0.2 1-0.1 1.9-0.3c-7-8.1-12.4-12.3-8.4-23.7z"/>
	<path id="Layer" class="s0" d="m202.8 246c0 0-22.4 61.1-22.8 67.9-0.4 6.9-6.8 93.3-12.1 98.3-5.4 5.1-21.8 82.9-9 89 12.7 6.1 53-4 53-4l14-92 4.7-70.4c0 0 14.5 165.9 40.8 165.4 26.2-0.4 58.2-10.4 58.2-10.4l-36.7-100.6c0 0 0.5-119-8-143-8.5-24-82.1-0.2-82.1-0.2z"/>
	<path id="Layer" class="s2" d="m269.3 88.6l-30 2.7-4.9 14.9c0 0-25.1 13.8-19.5 20 5.5 6.3-1.3 48.6-1.3 48.6l1.6 34.2c0 0-1.7 23.8-6.6 29.3-5 5.5-17.9 18.9-8.8 12.5 32.1-22.6 88.1-3.6 88.1-3.6l-8-49c0 0 18.1-80.2 11-87-7.2-6.7-14-7.6-14-7.6z"/>
	<path id="Layer" class="s1" d="m111.5 244c1.5-0.3 3-0.9 4.2-1.8 1.3-0.9 2.3-2 3.1-3.4 0.7-1.3 1.2-2.8 1.3-4.3 0.1-1.5-0.1-3.1-0.7-4.5l50.7-43-18.6-5.6-46.3 42.6c-2.4 1.1-4.3 3-5.3 5.4-1.1 2.3-1.2 5-0.4 7.4 0.8 2.5 2.4 4.6 4.6 5.9 2.3 1.3 4.9 1.8 7.4 1.3z"/>
	<path id="Layer" class="s2" d="m240.1 131.6c0 0 10-20.4-13.9-16.9-23.9 3.5-114.4 96.4-114.4 96.4l15.1 19.9 91.6-81.1z"/>
	<path id="Layer" class="s5" d="m201.2 97l-94.7 121.3c-0.8 1-1.4 2.2-1.7 3.5-0.4 1.3-0.5 2.6-0.3 3.9 0.2 1.3 0.6 2.6 1.2 3.7 0.7 1.2 1.5 2.2 2.6 3 22 53.4 87.8 93 165.2 129 1 0.8 2.2 1.4 3.5 1.7 1.2 0.4 2.6 0.5 3.9 0.3 1.3-0.2 2.6-0.6 3.7-1.2 1.2-0.7 2.2-1.5 3-2.6l94.7-121.3c0.8-1.1 1.4-2.2 1.8-3.5 0.3-1.3 0.4-2.6 0.2-3.9-0.1-1.3-0.5-2.6-1.2-3.8-0.6-1.1-1.5-2.1-2.5-2.9-65-36.7-120.8-79.2-165.2-129-1.1-0.8-2.3-1.4-3.5-1.7-1.3-0.4-2.6-0.5-4-0.3-1.3 0.1-2.5 0.6-3.7 1.2-1.1 0.7-2.1 1.5-3 2.6z"/>
	<path id="Layer" class="s6" d="m375.6 235.5l-28.8 37c-8.7 11.1-19.5 20.3-31.8 27.3-12.3 6.9-25.8 11.4-39.9 13.1-14 1.7-28.2 0.7-41.8-3-13.6-3.8-26.3-10.2-37.5-18.8l-80.8-63.1q-0.9-0.7-1.4-1.7-0.6-1-0.7-2.1-0.2-1.1 0.1-2.2 0.3-1.1 1-2l91.5-117.3q0.7-0.9 1.7-1.4 1-0.6 2.1-0.7 1.2-0.2 2.3 0.1 1.1 0.4 2 1.1c40.8 52.7 95.5 93.8 161.1 125.7q0.9 0.7 1.4 1.7 0.6 1 0.7 2.1 0.2 1.1-0.1 2.2-0.4 1.1-1.1 2z"/>
	<path id="Layer" class="s7" d="m199.4 163.2l-18.8 24c-0.5 0.7-1.2 1.1-2.1 1.2-0.8 0.1-1.6-0.1-2.2-0.6-0.6-0.5-1.1-1.3-1.2-2.1-0.1-0.8 0.2-1.6 0.7-2.2l18.7-24.1c0.5-0.6 1.3-1 2.1-1.1 0.8-0.1 1.6 0.1 2.2 0.6 0.7 0.5 1.1 1.2 1.2 2 0.1 0.8-0.1 1.7-0.6 2.3z"/>
	<path id="Layer" class="s7" d="m234.6 145.4l-41.3 52.8c-0.5 0.6-1.2 1-2 1.1-0.8 0.1-1.6-0.1-2.2-0.6-0.7-0.5-1.1-1.2-1.2-2-0.1-0.8 0.1-1.6 0.6-2.3l41.3-52.8c0.5-0.6 1.2-1.1 2-1.2 0.8-0.1 1.6 0.2 2.2 0.7 0.7 0.5 1.1 1.2 1.2 2 0.1 0.8-0.1 1.6-0.6 2.3z"/>
	<path id="Layer" class="s2" d="m164.3 233.5c-11.2 0-20.1-9-20.1-20.1 0-11.2 8.9-20.1 20.1-20.1 11.1 0 20 8.9 20 20.1 0 11.1-8.9 20.1-20 20.1z"/>
	<path id="Layer" class="s7" d="m236.8 187.1l-50.7 64.9c-0.5 0.5-1.2 0.8-2 0.9-0.7 0-1.5-0.2-2.1-0.7-0.6-0.4-1-1.1-1.1-1.8-0.1-0.8 0-1.5 0.4-2.2l50.6-64.9c0.6-0.5 1.3-0.8 2-0.9 0.8 0 1.5 0.2 2.1 0.7 0.6 0.4 1 1.1 1.2 1.8 0.1 0.8-0.1 1.6-0.4 2.2z"/>
	<path id="Layer" class="s7" d="m269.6 172.3l-70.7 90.5c-0.5 0.6-1.2 0.9-2 0.9-0.7 0.1-1.5-0.1-2.1-0.6-0.5-0.5-0.9-1.1-1.1-1.9-0.1-0.7 0-1.5 0.4-2.1l70.7-90.6c0.5-0.5 1.2-0.8 2-0.9 0.7 0 1.5 0.2 2.1 0.7 0.6 0.4 1 1.1 1.1 1.8 0.1 0.8 0 1.5-0.4 2.2z"/>
	<path id="Layer" class="s7" d="m269.4 212.5l-50.7 64.9c-0.5 0.6-1.2 0.9-2 0.9-0.7 0.1-1.5-0.1-2.1-0.6-0.6-0.5-1-1.1-1.1-1.9-0.1-0.7 0-1.5 0.4-2.1l50.6-64.9c0.6-0.5 1.3-0.9 2-0.9 0.8-0.1 1.5 0.2 2.1 0.6 0.6 0.5 1 1.2 1.2 1.9 0.1 0.7 0 1.5-0.4 2.1z"/>
	<path id="Layer" class="s2" d="m336.4 220.5l-50.7 64.9c-0.5 0.6-1.2 0.9-2 0.9-0.7 0.1-1.5-0.1-2.1-0.6-0.6-0.5-1-1.1-1.1-1.9-0.1-0.7 0-1.5 0.4-2.1l50.6-64.9c0.6-0.5 1.3-0.9 2-0.9 0.8-0.1 1.5 0.2 2.1 0.6 0.6 0.5 1 1.2 1.2 1.9 0.1 0.7 0 1.5-0.4 2.1z"/>
	<path id="Layer" class="s7" d="m302.2 197.7l-70.7 90.6c-0.5 0.5-1.2 0.8-2 0.9-0.7 0-1.5-0.2-2-0.6-0.6-0.5-1-1.2-1.2-1.9-0.1-0.8 0-1.5 0.4-2.2l70.7-90.5c0.5-0.6 1.2-0.9 2-0.9 0.7-0.1 1.5 0.1 2.1 0.6 0.6 0.5 1 1.1 1.1 1.9 0.1 0.7 0 1.5-0.4 2.1z"/>
	<path id="Layer" class="s0" d="m219 50.2c0 10 4.9 19.2 13.1 24.8 8.2 5.5 18.6 6.6 27.8 2.9 9.2-3.7 16-11.7 18.1-21.4 2-9.7-0.9-19.8-7.7-26.9l-0.2-0.2q-0.3-0.4-0.7-0.7 0 0 0 0 0 0 0 0 0 0 0 0 0 0 0 0-0.5-0.5-1-0.9c-4.3-3.8-9.6-6.2-15.3-7.1-5.6-0.8-11.4 0-16.6 2.4-5.3 2.3-9.7 6.2-12.8 11-3.1 4.8-4.7 10.4-4.7 16.1z"/>
	<path id="Layer" class="s1" d="m256.1 82.2c-13.8 0-25-11.2-25-25.1 0-13.8 11.2-25 25-25 13.9 0 25 11.2 25 25 0 13.9-11.1 25.1-25 25.1z"/>
	<path id="Layer" class="s0" d="m229.5 63.8c-2.5-11 1.1-23.3 8.8-30.7 1.9-1.8 4.1-3.3 6.4-4.5 2.4-1.2 4.9-2.1 7.5-2.6 2.6-0.5 5.2-0.6 7.8-0.4 2.7 0.2 5.3 0.8 7.7 1.8q1 0.4 1.9 0.8l0.3 0.1v0.1q0.1 0 0.1 0.1 0.1 0 0.1 0.1 0.1 0 0.1 0 0.1 0.1 0.1 0.1 0.1 0 0.2 0 1.6 0 3.2 0.3 1.6 0.3 3.1 0.9 1.5 0.6 2.8 1.6 1.4 0.9 2.5 2.1c3.9 4.2 5.7 11 5.1 19.1v0.3l-0.2 0.1q-1.1 0.7-2.2 1.4-1.1 0.6-2.3 1.3-1.1 0.6-2.3 1.2-1.1 0.6-2.3 1.1c-11 5.2-21 6.2-30.7 3l-0.1-0.1-4.1-6.8c-0.8 4.7-0.4 20.2-5.1 21l-8.3-10.9z"/>
	<path id="Layer" class="s0" d="m176.8 85.6c8.5-4.4-2.4-20.4-0.2-29.7 2.2-9.3 18-12.3 19-21.8 1-9.5 3.4-19.4 9.7-26.6 4-4.6 9.9-8 16-7.4 2.1 0.2 4.1 0.8 5.9 1.8 1.8 1.1 3.3 2.5 4.5 4.2 1.2 1.7 2 3.6 2.4 5.6 0.4 2.1 0.4 4.1-0.1 6.2 1.7-2.5 6.2-2 7.3 0.8 1 2.5-1.2 5.5-3.8 5.7-3.3 4.2-7.2 8.6-12.4 9.4q-0.7 0.2-1.3 0.2-0.7 0-1.3-0.2-0.6-0.1-1.2-0.4-0.6-0.3-1.1-0.7c-1.2-1.2-1.3-3.6 0.2-4.4-6.7 2.6-10.5 9.7-11.5 16.8-1 7 0.4 14.2 1.2 21.2 0.9 7.1 1.3 14.5-1.4 21.1-3.3 7.7-10.8 13.3-19.1 15.1-8.2 1.8-16.9 0-24.4-3.9-7.4-3.9-13.6-9.9-18.7-16.6 8.7 6.2 20.8 8.5 30.3 3.6z"/>
	<path id="Layer" class="s0" d="m244.2 55.5c-8.8 15.1 7.7 40.5-8.9 45.7l1.4-1.3c10-12.3-10.9-38.4-0.9-50.7q0.6-0.7 1.1-1.4 0.5-0.7 1-1.5 0.5-0.7 1-1.5 0.4-0.8 0.9-1.6"/>
	<path id="Layer" class="s8" d="m230.6 63.6c0 0 7.4-27.7 39.2-34.1q0.1 0 0.3-0.1 0.2-0.1 0.3-0.2-0.5-0.3-1-0.5 0 0 0 0 0 0 0 0 0 0 0 0 0 0 0 0-0.5-0.5-1-0.9l-0.9 0.1c0 0-31.8-5.1-36.9 35.7z"/>
</svg>